<svg width="775" height="298" viewBox="0 0 775 298" fill="none" xmlns="http://www.w3.org/2000/svg">
<path d="M246.01 219.728H571.505C571.505 239.886 592.305 259.096 622.847 259.096C653.389 259.096 675.448 239.886 675.448 219.728H775V139.596C775 71.5959 737 1.09225 653 0.336079C569.001 -0.420093 101.563 0.336079 101.563 0.336079C81.8801 3.52121 42.5149 19.3704 42.5149 57.2862V194.884C40.4003 203.165 43.6861 219.728 73.7468 219.728H144.019C144.019 239.429 166.916 259.096 193.306 259.096C219.697 259.096 246.01 239.429 246.01 219.728Z" fill="#92D3E6"/>
<path d="M204.01 258.632H529.505C529.505 278.791 550.305 298 580.847 298C611.389 298 633.448 278.791 633.448 258.632H733V178.5C733 110.5 695 39.9963 611 39.2402C527.001 38.484 59.5627 39.2402 59.5627 39.2402C39.8801 42.4253 0.514939 58.2745 0.514939 96.1903V233.788C-1.59972 242.069 1.68613 258.632 31.7468 258.632H102.019C102.019 278.333 124.916 298 151.306 298C177.697 298 204.01 278.333 204.01 258.632Z" fill="#06AEE2"/>
<path d="M86.13 188V111H111.54C116.82 111 121.367 111.807 125.18 113.42C129.067 115.033 132.073 117.453 134.2 120.68C136.327 123.833 137.39 127.793 137.39 132.56C137.39 135.86 136.583 138.83 134.97 141.47C133.43 144.11 131.23 146.31 128.37 148.07C132.11 149.903 134.97 152.36 136.95 155.44C138.93 158.52 139.92 162.187 139.92 166.44C139.92 170.987 138.893 174.873 136.84 178.1C134.787 181.327 131.89 183.783 128.15 185.47C124.41 187.157 119.973 188 114.84 188H86.13ZM98.67 176.56H113.85C117.883 176.56 121.073 175.57 123.42 173.59C125.767 171.61 126.94 168.933 126.94 165.56C126.94 161.893 125.62 159.033 122.98 156.98C120.413 154.927 116.783 153.9 112.09 153.9H98.67V176.56ZM98.67 143.34H112.64C116.307 143.34 119.167 142.387 121.22 140.48C123.347 138.5 124.41 135.787 124.41 132.34C124.41 128.82 123.2 126.143 120.78 124.31C118.433 122.403 115.133 121.45 110.88 121.45H98.67V143.34ZM188.024 188L187.364 177.88V133H199.574V188H188.024ZM149.964 161.16V133H162.284V161.16H149.964ZM162.284 161.16C162.284 165.487 162.797 168.86 163.824 171.28C164.85 173.7 166.244 175.387 168.004 176.34C169.837 177.293 171.927 177.77 174.274 177.77C178.454 177.843 181.68 176.487 183.954 173.7C186.227 170.913 187.364 166.917 187.364 161.71H191.984C191.984 167.503 191.104 172.49 189.344 176.67C187.657 180.777 185.237 183.93 182.084 186.13C179.004 188.257 175.264 189.32 170.864 189.32C166.537 189.32 162.797 188.44 159.644 186.68C156.564 184.92 154.18 182.17 152.494 178.43C150.807 174.69 149.964 169.887 149.964 164.02V161.16H162.284ZM233.283 189.32C229.617 189.32 226.243 188.77 223.163 187.67C220.083 186.57 217.443 185.03 215.243 183.05C213.043 180.997 211.357 178.613 210.183 175.9L220.853 171.17C221.953 173.223 223.567 174.947 225.693 176.34C227.893 177.733 230.313 178.43 232.953 178.43C235.813 178.43 238.087 177.953 239.773 177C241.533 175.973 242.413 174.58 242.413 172.82C242.413 171.133 241.753 169.85 240.433 168.97C239.113 168.017 237.243 167.247 234.823 166.66L229.653 165.23C224.447 163.91 220.377 161.82 217.443 158.96C214.51 156.027 213.043 152.69 213.043 148.95C213.043 143.45 214.803 139.197 218.323 136.19C221.917 133.183 227.05 131.68 233.723 131.68C237.097 131.68 240.177 132.193 242.963 133.22C245.823 134.173 248.28 135.567 250.333 137.4C252.387 139.16 253.817 141.25 254.623 143.67L244.393 148.29C243.66 146.457 242.267 145.063 240.213 144.11C238.16 143.083 235.887 142.57 233.393 142.57C230.9 142.57 228.957 143.12 227.563 144.22C226.17 145.247 225.473 146.713 225.473 148.62C225.473 149.72 226.097 150.747 227.343 151.7C228.59 152.58 230.387 153.313 232.733 153.9L239.223 155.44C242.817 156.32 245.75 157.713 248.023 159.62C250.297 161.453 251.983 163.543 253.083 165.89C254.183 168.163 254.733 170.473 254.733 172.82C254.733 176.12 253.78 179.017 251.873 181.51C250.04 184.003 247.51 185.947 244.283 187.34C241.057 188.66 237.39 189.32 233.283 189.32ZM266.814 188V111H292.224C297.504 111 302.05 111.807 305.864 113.42C309.75 115.033 312.757 117.453 314.884 120.68C317.01 123.833 318.074 127.793 318.074 132.56C318.074 135.86 317.267 138.83 315.654 141.47C314.114 144.11 311.914 146.31 309.054 148.07C312.794 149.903 315.654 152.36 317.634 155.44C319.614 158.52 320.604 162.187 320.604 166.44C320.604 170.987 319.577 174.873 317.524 178.1C315.47 181.327 312.574 183.783 308.834 185.47C305.094 187.157 300.657 188 295.524 188H266.814ZM279.354 176.56H294.534C298.567 176.56 301.757 175.57 304.104 173.59C306.45 171.61 307.624 168.933 307.624 165.56C307.624 161.893 306.304 159.033 303.664 156.98C301.097 154.927 297.467 153.9 292.774 153.9H279.354V176.56ZM279.354 143.34H293.324C296.99 143.34 299.85 142.387 301.904 140.48C304.03 138.5 305.094 135.787 305.094 132.34C305.094 128.82 303.884 126.143 301.464 124.31C299.117 122.403 295.817 121.45 291.564 121.45H279.354V143.34ZM368.707 188L368.047 177.88V133H380.257V188H368.707ZM330.647 161.16V133H342.967V161.16H330.647ZM342.967 161.16C342.967 165.487 343.48 168.86 344.507 171.28C345.534 173.7 346.927 175.387 348.687 176.34C350.52 177.293 352.61 177.77 354.957 177.77C359.137 177.843 362.364 176.487 364.637 173.7C366.91 170.913 368.047 166.917 368.047 161.71H372.667C372.667 167.503 371.787 172.49 370.027 176.67C368.34 180.777 365.92 183.93 362.767 186.13C359.687 188.257 355.947 189.32 351.547 189.32C347.22 189.32 343.48 188.44 340.327 186.68C337.247 184.92 334.864 182.17 333.177 178.43C331.49 174.69 330.647 169.887 330.647 164.02V161.16H342.967ZM433.657 188L433.107 177.77V111H445.317V188H433.657ZM415.727 189.32C410.74 189.32 406.377 188.147 402.637 185.8C398.97 183.38 396.074 180.007 393.947 175.68C391.894 171.353 390.867 166.293 390.867 160.5C390.867 154.633 391.894 149.573 393.947 145.32C396.074 140.993 398.97 137.657 402.637 135.31C406.377 132.89 410.74 131.68 415.727 131.68C420.347 131.68 424.307 132.89 427.607 135.31C430.98 137.657 433.547 140.993 435.307 145.32C437.067 149.573 437.947 154.633 437.947 160.5C437.947 166.293 437.067 171.353 435.307 175.68C433.547 180.007 430.98 183.38 427.607 185.8C424.307 188.147 420.347 189.32 415.727 189.32ZM418.807 178.1C421.594 178.1 424.05 177.367 426.177 175.9C428.377 174.36 430.064 172.27 431.237 169.63C432.484 166.99 433.107 163.947 433.107 160.5C433.107 157.053 432.484 154.01 431.237 151.37C430.064 148.73 428.377 146.677 426.177 145.21C424.05 143.743 421.557 143.01 418.697 143.01C415.764 143.01 413.16 143.743 410.887 145.21C408.614 146.677 406.817 148.73 405.497 151.37C404.25 154.01 403.59 157.053 403.517 160.5C403.59 163.947 404.25 166.99 405.497 169.63C406.817 172.27 408.614 174.36 410.887 175.9C413.234 177.367 415.874 178.1 418.807 178.1ZM498.647 188L498.097 177.77V111H510.307V188H498.647ZM480.717 189.32C475.731 189.32 471.367 188.147 467.627 185.8C463.961 183.38 461.064 180.007 458.937 175.68C456.884 171.353 455.857 166.293 455.857 160.5C455.857 154.633 456.884 149.573 458.937 145.32C461.064 140.993 463.961 137.657 467.627 135.31C471.367 132.89 475.731 131.68 480.717 131.68C485.337 131.68 489.297 132.89 492.597 135.31C495.971 137.657 498.537 140.993 500.297 145.32C502.057 149.573 502.937 154.633 502.937 160.5C502.937 166.293 502.057 171.353 500.297 175.68C498.537 180.007 495.971 183.38 492.597 185.8C489.297 188.147 485.337 189.32 480.717 189.32ZM483.797 178.1C486.584 178.1 489.041 177.367 491.167 175.9C493.367 174.36 495.054 172.27 496.227 169.63C497.474 166.99 498.097 163.947 498.097 160.5C498.097 157.053 497.474 154.01 496.227 151.37C495.054 148.73 493.367 146.677 491.167 145.21C489.041 143.743 486.547 143.01 483.687 143.01C480.754 143.01 478.151 143.743 475.877 145.21C473.604 146.677 471.807 148.73 470.487 151.37C469.241 154.01 468.581 157.053 468.507 160.5C468.581 163.947 469.241 166.99 470.487 169.63C471.807 172.27 473.604 174.36 475.877 175.9C478.224 177.367 480.864 178.1 483.797 178.1ZM524.697 188V133H536.907V188H524.697ZM530.857 122.55C528.877 122.55 527.154 121.853 525.687 120.46C524.294 118.993 523.597 117.27 523.597 115.29C523.597 113.31 524.294 111.623 525.687 110.23C527.154 108.837 528.877 108.14 530.857 108.14C532.837 108.14 534.524 108.837 535.917 110.23C537.384 111.623 538.117 113.31 538.117 115.29C538.117 117.27 537.384 118.993 535.917 120.46C534.524 121.853 532.837 122.55 530.857 122.55ZM575.957 189.32C570.604 189.32 565.837 188.11 561.657 185.69C557.551 183.197 554.287 179.787 551.867 175.46C549.521 171.133 548.347 166.147 548.347 160.5C548.347 154.853 549.557 149.867 551.977 145.54C554.397 141.213 557.697 137.84 561.877 135.42C566.131 132.927 570.971 131.68 576.397 131.68C581.311 131.68 585.747 132.963 589.707 135.53C593.667 138.023 596.784 141.653 599.057 146.42C601.404 151.187 602.577 156.87 602.577 163.47H559.347L560.997 161.93C560.997 165.303 561.731 168.237 563.197 170.73C564.664 173.15 566.607 175.02 569.027 176.34C571.447 177.66 574.124 178.32 577.057 178.32C580.431 178.32 583.217 177.587 585.417 176.12C587.617 174.58 589.341 172.6 590.587 170.18L601.477 174.8C599.937 177.733 597.957 180.3 595.537 182.5C593.191 184.7 590.367 186.387 587.067 187.56C583.841 188.733 580.137 189.32 575.957 189.32ZM561.767 155.55L560.007 154.01H591.027L589.377 155.55C589.377 152.543 588.717 150.087 587.397 148.18C586.077 146.2 584.391 144.733 582.337 143.78C580.357 142.753 578.267 142.24 576.067 142.24C573.867 142.24 571.667 142.753 569.467 143.78C567.267 144.733 565.434 146.2 563.967 148.18C562.501 150.087 561.767 152.543 561.767 155.55ZM632.033 189.32C628.367 189.32 624.993 188.77 621.913 187.67C618.833 186.57 616.193 185.03 613.993 183.05C611.793 180.997 610.107 178.613 608.933 175.9L619.603 171.17C620.703 173.223 622.317 174.947 624.443 176.34C626.643 177.733 629.063 178.43 631.703 178.43C634.563 178.43 636.837 177.953 638.523 177C640.283 175.973 641.163 174.58 641.163 172.82C641.163 171.133 640.503 169.85 639.183 168.97C637.863 168.017 635.993 167.247 633.573 166.66L628.403 165.23C623.197 163.91 619.127 161.82 616.193 158.96C613.26 156.027 611.793 152.69 611.793 148.95C611.793 143.45 613.553 139.197 617.073 136.19C620.667 133.183 625.8 131.68 632.473 131.68C635.847 131.68 638.927 132.193 641.713 133.22C644.573 134.173 647.03 135.567 649.083 137.4C651.137 139.16 652.567 141.25 653.373 143.67L643.143 148.29C642.41 146.457 641.017 145.063 638.963 144.11C636.91 143.083 634.637 142.57 632.143 142.57C629.65 142.57 627.707 143.12 626.313 144.22C624.92 145.247 624.223 146.713 624.223 148.62C624.223 149.72 624.847 150.747 626.093 151.7C627.34 152.58 629.137 153.313 631.483 153.9L637.973 155.44C641.567 156.32 644.5 157.713 646.773 159.62C649.047 161.453 650.733 163.543 651.833 165.89C652.933 168.163 653.483 170.473 653.483 172.82C653.483 176.12 652.53 179.017 650.623 181.51C648.79 184.003 646.26 185.947 643.033 187.34C639.807 188.66 636.14 189.32 632.033 189.32Z" fill="black"/>
</svg>
